<?xml version="1.0" encoding="utf-8"?>
<!-- Generator: Adobe Illustrator 22.1.0, SVG Export Plug-In . SVG Version: 6.00 Build 0)  -->
<svg version="1.1" id="Слой_1" xmlns="http://www.w3.org/2000/svg" xmlns:xlink="http://www.w3.org/1999/xlink" x="0px" y="0px"
	 viewBox="0 0 255 136.8" style="enable-background:new 0 0 255 136.8;" xml:space="preserve">
<style type="text/css">
	.st0{fill:url(#SVGID_1_);}
	.st1{fill:url(#SVGID_2_);}
	.st2{fill:#23FFF3;}
	.st3{opacity:0.18;}
	.st4{fill:#1F8BBA;}
	.st5{filter:url(#Adobe_OpacityMaskFilter);}
	.st6{opacity:0.75;mask:url(#SVGID_3_);}
	.st7{fill:#FFFFFF;}
	.st8{filter:url(#Adobe_OpacityMaskFilter_1_);}
	.st9{opacity:0.82;mask:url(#SVGID_4_);}
	.st10{fill:#1D585B;}
	.st11{filter:url(#Adobe_OpacityMaskFilter_2_);}
	.st12{opacity:0.75;}
</style>
<g>
	<g>
		<linearGradient id="SVGID_1_" gradientUnits="userSpaceOnUse" x1="80.9467" y1="8.467063e-02" x2="81.7701" y2="132.6429">
			<stop  offset="3.492534e-02" style="stop-color:#15FEEC"/>
			<stop  offset="1" style="stop-color:#63004E"/>
			<stop  offset="1" style="stop-color:#610651"/>
			<stop  offset="1" style="stop-color:#5B1759"/>
			<stop  offset="1" style="stop-color:#523267"/>
			<stop  offset="1" style="stop-color:#46587B"/>
			<stop  offset="1" style="stop-color:#358994"/>
			<stop  offset="1" style="stop-color:#22C4B1"/>
			<stop  offset="1" style="stop-color:#16E7C3"/>
		</linearGradient>
		<path class="st0" d="M154.9,122.1c-2,0-25.9-0.3-27.8-0.3c-2.5,0-25.6,0-27.9,0c-2.4,0-5.3,10.8-7.6,10.8c-2.3,0-49.4,0.2-63.5,0
			c-11.8-0.2-16.1,0-22.2-7.4s5.4-24.2,5.4-24.2l59.9-89c0,0,7.8-12.7,24.9-11.9s62.3,0,62.3,0"/>
		<linearGradient id="SVGID_2_" gradientUnits="userSpaceOnUse" x1="171.6144" y1="-0.4423" x2="172.4425" y2="132.8857">
			<stop  offset="3.492534e-02" style="stop-color:#15FEEC"/>
			<stop  offset="1" style="stop-color:#63004E"/>
			<stop  offset="1" style="stop-color:#610651"/>
			<stop  offset="1" style="stop-color:#5B1759"/>
			<stop  offset="1" style="stop-color:#523267"/>
			<stop  offset="1" style="stop-color:#46587B"/>
			<stop  offset="1" style="stop-color:#358994"/>
			<stop  offset="1" style="stop-color:#22C4B1"/>
			<stop  offset="1" style="stop-color:#16E7C3"/>
		</linearGradient>
		<path class="st1" d="M154.9,122.1c2.2,0,4.2,10.5,6.7,10.6c27.4,0,57.3-0.1,63.5-0.2c11.8-0.2,16.1,0,22.2-7.4
			c6.1-7.4-5.4-24.2-5.4-24.2L182,12c0,0-7.8-12.7-24.9-11.9S94.9,0,94.9,0"/>
	</g>
	<g>
		<path class="st2" d="M135.7,97c-1.2,0-7.1,0-8.2,0c-1.5,0-7.1,0-8.5,0c-1.5,0-3.3,6.6-4.6,6.6c-1.4,0-2.7,0-4,0
			c-33.7,0.1-34.7,0.1-43.3,0c-7.2-0.1-9.8,0-13.5-4.5c-3.7-4.5,3.3-14.8,3.3-14.8l36.6-54.4c0,0,4.8-7.8,15.2-7.3s38,0,38,0"/>
		<path class="st2" d="M135.7,97c1.4,0,2.9,6.6,4.5,6.6c16.7,0,43.4,0,47.2,0c7.2-0.1,9.8,0,13.5-4.5c3.7-4.5-3.3-14.8-3.3-14.8
			L161,29.9c0,0-2-3.2-6.1-5.4c-2.3-1.2-5.3-2.1-9.1-1.9c-10.5,0.5-38,0-38,0"/>
	</g>
	<g class="st3">
		<g>
			<g>
				<g>
					<path class="st4" d="M135.8,97.4c-1.2,0-7.1,0-8.2,0c-1.5,0-7.1,0-8.5,0c-1.5,0-3.3,6.6-4.6,6.6c-1.4,0-2.7,0-4,0
						c-33.6,0.1-34.7,0.1-43.3,0c-7.2-0.1-9.8,0-13.5-4.5c-3.7-4.5,93-76.4,93-76.4"/>
					<path class="st4" d="M135.8,97.4c1.4,0,2.9,6.6,4.5,6.6c16.7,0,43.4,0,47.1,0c7.2-0.1,9.8,0,13.5-4.5
						c3.7-4.5-3.3-14.8-3.3-14.8l-36.6-54.3c0,0-2-3.2-6.1-5.4c-2.3-1.2-5.3-2.1-9.1-1.9"/>
				</g>
			</g>
			<defs>
				<filter id="Adobe_OpacityMaskFilter" filterUnits="userSpaceOnUse" x="53.5" y="23.1" width="148.5" height="81">
					
						<feColorMatrix  type="matrix" values="-1 0 0 0 1  0 -1 0 0 1  0 0 -1 0 1  0 0 0 1 0" color-interpolation-filters="sRGB" result="source"/>
				</filter>
			</defs>
			<mask maskUnits="userSpaceOnUse" x="53.5" y="23.1" width="148.5" height="81" id="SVGID_3_">
				<g class="st5">
					
						<image style="overflow:visible;" width="637" height="355" xlink:href="649AD82E1DB01D2F.jpg"  transform="matrix(0.24 0 0 0.24 51.36 20.9534)">
					</image>
				</g>
			</mask>
			<g class="st6">
				<g>
					<path class="st7" d="M135.8,97.4c-1.2,0-7.1,0-8.2,0c-1.5,0-7.1,0-8.5,0c-1.5,0-3.3,6.6-4.6,6.6c-1.4,0-2.7,0-4,0
						c-33.6,0.1-34.7,0.1-43.3,0c-7.2-0.1-9.8,0-13.5-4.5c-3.7-4.5,93-76.4,93-76.4"/>
					<path class="st7" d="M135.8,97.4c1.4,0,2.9,6.6,4.5,6.6c16.7,0,43.4,0,47.1,0c7.2-0.1,9.8,0,13.5-4.5
						c3.7-4.5-3.3-14.8-3.3-14.8l-36.6-54.3c0,0-2-3.2-6.1-5.4c-2.3-1.2-5.3-2.1-9.1-1.9"/>
				</g>
			</g>
		</g>
		<defs>
			<filter id="Adobe_OpacityMaskFilter_1_" filterUnits="userSpaceOnUse" x="53.5" y="23.1" width="148.5" height="81">
				
					<feColorMatrix  type="matrix" values="-1 0 0 0 1  0 -1 0 0 1  0 0 -1 0 1  0 0 0 1 0" color-interpolation-filters="sRGB" result="source"/>
			</filter>
		</defs>
		<mask maskUnits="userSpaceOnUse" x="53.5" y="23.1" width="148.5" height="81" id="SVGID_4_">
			<g class="st8">
				
					<image style="overflow:visible;" width="637" height="355" xlink:href="649AD82E1DB01D2D.jpg"  transform="matrix(0.24 0 0 0.24 51.36 20.9534)">
				</image>
			</g>
		</mask>
		<g class="st9">
			<g>
				<g>
					<path class="st10" d="M135.8,97.4c-1.2,0-7.1,0-8.2,0c-1.5,0-7.1,0-8.5,0c-1.5,0-3.3,6.6-4.6,6.6c-1.4,0-2.7,0-4,0
						c-33.6,0.1-34.7,0.1-43.3,0c-7.2-0.1-9.8,0-13.5-4.5c-3.7-4.5,93-76.4,93-76.4"/>
					<path class="st10" d="M135.8,97.4c1.4,0,2.9,6.6,4.5,6.6c16.7,0,43.4,0,47.1,0c7.2-0.1,9.8,0,13.5-4.5
						c3.7-4.5-3.3-14.8-3.3-14.8l-36.6-54.3c0,0-2-3.2-6.1-5.4c-2.3-1.2-5.3-2.1-9.1-1.9"/>
				</g>
			</g>
			<defs>
				<filter id="Adobe_OpacityMaskFilter_2_" filterUnits="userSpaceOnUse" x="53.5" y="23.1" width="148.5" height="81">
					
						<feColorMatrix  type="matrix" values="-1 0 0 0 1  0 -1 0 0 1  0 0 -1 0 1  0 0 0 1 0" color-interpolation-filters="sRGB" result="source"/>
				</filter>
			</defs>
			<mask maskUnits="userSpaceOnUse" x="53.5" y="23.1" width="148.5" height="81" id="SVGID_4_">
				<g class="st11">
					
						<image style="overflow:visible;" width="637" height="355" xlink:href="649AD82E1DB01D33.jpg"  transform="matrix(0.24 0 0 0.24 51.36 20.9534)">
					</image>
				</g>
			</mask>
			<g class="st12">
				<g>
					<path class="st10" d="M135.8,97.4c-1.2,0-7.1,0-8.2,0c-1.5,0-7.1,0-8.5,0c-1.5,0-3.3,6.6-4.6,6.6c-1.4,0-2.7,0-4,0
						c-33.6,0.1-34.7,0.1-43.3,0c-7.2-0.1-9.8,0-13.5-4.5c-3.7-4.5,93-76.4,93-76.4"/>
					<path class="st10" d="M135.8,97.4c1.4,0,2.9,6.6,4.5,6.6c16.7,0,43.4,0,47.1,0c7.2-0.1,9.8,0,13.5-4.5
						c3.7-4.5-3.3-14.8-3.3-14.8l-36.6-54.3c0,0-2-3.2-6.1-5.4c-2.3-1.2-5.3-2.1-9.1-1.9"/>
				</g>
			</g>
		</g>
	</g>
</g>
</svg>
